<svg width="24" height="24" viewBox="0 0 24 24" fill="none" xmlns="http://www.w3.org/2000/svg">
<path fill-rule="evenodd" clip-rule="evenodd" d="M2.99963 10.1548L21.4946 5.00977L22.4996 5.80477V18.7048L21.4946 19.4998L12.3622 17.1075C12.2924 17.3776 12.1878 17.6384 12.0503 17.8832C11.8092 18.3126 11.4734 18.6813 11.0684 18.9615C10.6634 19.2416 10.1999 19.4257 9.71306 19.4999C9.22623 19.574 8.72891 19.5362 8.25889 19.3893C7.78886 19.2424 7.3585 18.9903 7.00051 18.6522C6.64252 18.314 6.36631 17.8988 6.19288 17.4379C6.01945 16.977 5.95336 16.4826 5.99963 15.9924C6.01648 15.8139 6.04805 15.6376 6.09378 15.4654L2.99963 14.6548L2.36963 13.8598V10.9498L2.99963 10.1548ZM7.50884 15.8361C7.47636 15.9536 7.45642 16.075 7.44991 16.1985C7.44991 16.664 7.63481 17.1104 7.96394 17.4395C8.29307 17.7686 8.73946 17.9535 9.20491 17.9535C9.67037 17.9535 10.1168 17.7686 10.4459 17.4395C10.649 17.2364 10.7971 16.9887 10.8808 16.7194L7.50884 15.8361ZM3.86963 13.2298L20.9996 17.7448V6.74977L3.86963 11.5798V13.2298Z" fill="#4F4F4F"/>
<path d="M21.4946 5.00977L21.8048 4.61762L21.6055 4.45994L21.3606 4.52806L21.4946 5.00977ZM2.99963 10.1548L2.86562 9.67314L2.70883 9.71676L2.60776 9.84431L2.99963 10.1548ZM22.4996 5.80477H22.9996V5.56276L22.8098 5.41262L22.4996 5.80477ZM22.4996 18.7048L22.8098 19.097L22.9996 18.9468V18.7048H22.4996ZM21.4946 19.4998L21.3679 19.9835L21.6092 20.0467L21.8048 19.892L21.4946 19.4998ZM12.3622 17.1075L12.4889 16.6238L12.0037 16.4967L11.8781 16.9824L12.3622 17.1075ZM12.0503 17.8832L11.6144 17.6384V17.6384L12.0503 17.8832ZM11.0684 18.9615L11.3528 19.3727V19.3727L11.0684 18.9615ZM9.71306 19.4999L9.63779 19.0056H9.63779L9.71306 19.4999ZM8.25889 19.3893L8.40803 18.9121L8.40802 18.9121L8.25889 19.3893ZM7.00051 18.6522L7.34384 18.2887L7.34384 18.2887L7.00051 18.6522ZM6.19288 17.4379L6.66085 17.2618L6.19288 17.4379ZM5.99963 15.9924L5.50184 15.9454L5.99963 15.9924ZM6.09378 15.4654L6.57704 15.5937L6.70577 15.1088L6.22049 14.9817L6.09378 15.4654ZM2.99963 14.6548L2.60776 14.9654L2.71144 15.0962L2.87292 15.1385L2.99963 14.6548ZM2.36963 13.8598H1.86963V14.0339L1.97776 14.1704L2.36963 13.8598ZM2.36963 10.9498L1.97776 10.6393L1.86963 10.7758V10.9498H2.36963ZM7.44991 16.1985L6.95061 16.1722L6.94991 16.1854V16.1985H7.44991ZM7.50884 15.8361L7.63555 15.3524L7.15838 15.2274L7.02693 15.7028L7.50884 15.8361ZM10.4459 17.4395L10.7994 17.793H10.7994L10.4459 17.4395ZM10.8808 16.7194L11.3583 16.8678L11.5136 16.3683L11.0075 16.2357L10.8808 16.7194ZM20.9996 17.7448L20.8722 18.2283L21.4996 18.3937V17.7448H20.9996ZM3.86963 13.2298H3.36963V13.6151L3.7422 13.7133L3.86963 13.2298ZM20.9996 6.74977H21.4996V6.08929L20.8639 6.26853L20.9996 6.74977ZM3.86963 11.5798L3.73394 11.0986L3.36963 11.2013V11.5798H3.86963ZM21.3606 4.52806L2.86562 9.67314L3.13363 10.6366L21.6286 5.49147L21.3606 4.52806ZM22.8098 5.41262L21.8048 4.61762L21.1844 5.40191L22.1894 6.19691L22.8098 5.41262ZM22.9996 18.7048V5.80477H21.9996V18.7048H22.9996ZM21.8048 19.892L22.8098 19.097L22.1894 18.3127L21.1844 19.1077L21.8048 19.892ZM12.2355 17.5912L21.3679 19.9835L21.6213 19.0161L12.4889 16.6238L12.2355 17.5912ZM12.4863 18.128C12.645 17.8454 12.7658 17.5444 12.8463 17.2326L11.8781 16.9824C11.8191 17.2108 11.7306 17.4314 11.6144 17.6384L12.4863 18.128ZM11.3528 19.3727C11.8203 19.0493 12.208 18.6237 12.4863 18.128L11.6144 17.6384C11.4105 18.0015 11.1265 18.3134 10.784 18.5503L11.3528 19.3727ZM9.78834 19.9942C10.3503 19.9086 10.8853 19.696 11.3528 19.3727L10.784 18.5503C10.4415 18.7872 10.0495 18.9429 9.63779 19.0056L9.78834 19.9942ZM8.10975 19.8665C8.65231 20.0361 9.22638 20.0797 9.78834 19.9942L9.63779 19.0056C9.22609 19.0683 8.80551 19.0363 8.40803 18.9121L8.10975 19.8665ZM6.65718 19.0157C7.07042 19.406 7.56719 19.697 8.10975 19.8665L8.40802 18.9121C8.01054 18.7878 7.64659 18.5747 7.34384 18.2887L6.65718 19.0157ZM5.72492 17.614C5.92511 18.146 6.24394 18.6254 6.65718 19.0157L7.34384 18.2887C7.0411 18.0027 6.80751 17.6515 6.66085 17.2618L5.72492 17.614ZM5.50184 15.9454C5.44843 16.5113 5.52472 17.0819 5.72492 17.614L6.66085 17.2618C6.51418 16.872 6.45829 16.4539 6.49742 16.0393L5.50184 15.9454ZM5.61053 15.3371C5.55774 15.5359 5.52129 15.7393 5.50184 15.9454L6.49742 16.0393C6.51167 15.8884 6.53837 15.7394 6.57704 15.5937L5.61053 15.3371ZM2.87292 15.1385L5.96708 15.9491L6.22049 14.9817L3.12633 14.1712L2.87292 15.1385ZM1.97776 14.1704L2.60776 14.9654L3.3915 14.3443L2.7615 13.5493L1.97776 14.1704ZM1.86963 10.9498V13.8598H2.86963V10.9498H1.86963ZM2.60776 9.84431L1.97776 10.6393L2.7615 11.2604L3.3915 10.4654L2.60776 9.84431ZM7.94922 16.2248C7.95381 16.1378 7.96787 16.0521 7.99076 15.9693L7.02693 15.7028C6.98486 15.855 6.95904 16.0123 6.95061 16.1722L7.94922 16.2248ZM8.31749 17.0859C8.08214 16.8506 7.94991 16.5314 7.94991 16.1985H6.94991C6.94991 16.7966 7.18749 17.3702 7.61039 17.793L8.31749 17.0859ZM9.20491 17.4535C8.87207 17.4535 8.55285 17.3213 8.31749 17.0859L7.61039 17.793C8.03328 18.2159 8.60685 18.4535 9.20491 18.4535V17.4535ZM10.0923 17.0859C9.85697 17.3213 9.53776 17.4535 9.20491 17.4535V18.4535C9.80298 18.4535 10.3765 18.2159 10.7994 17.793L10.0923 17.0859ZM10.4034 16.571C10.3435 16.7636 10.2375 16.9407 10.0923 17.0859L10.7994 17.793C11.0604 17.5321 11.2508 17.2138 11.3583 16.8678L10.4034 16.571ZM7.38214 16.3198L10.7541 17.2031L11.0075 16.2357L7.63555 15.3524L7.38214 16.3198ZM21.1271 17.2613L3.99706 12.7464L3.7422 13.7133L20.8722 18.2283L21.1271 17.2613ZM20.4996 6.74977V17.7448H21.4996V6.74977H20.4996ZM4.00532 12.0611L21.1353 7.231L20.8639 6.26853L3.73394 11.0986L4.00532 12.0611ZM4.36963 13.2298V11.5798H3.36963V13.2298H4.36963Z" fill="#4F4F4F"/>
</svg>
