<svg width="24" height="24" viewBox="0 0 24 24" fill="none" xmlns="http://www.w3.org/2000/svg">
<path fill-rule="evenodd" clip-rule="evenodd" d="M21.8698 10.1548L3.37475 5.00977L2.36975 5.80477V18.7048L3.37475 19.4998L12.5071 17.1075C12.577 17.3776 12.6816 17.6384 12.819 17.8832C13.0602 18.3126 13.396 18.6813 13.801 18.9615C14.206 19.2416 14.6695 19.4257 15.1563 19.4999C15.6432 19.574 16.1405 19.5362 16.6105 19.3893C17.0805 19.2424 17.5109 18.9903 17.8689 18.6522C18.2269 18.314 18.5031 17.8988 18.6765 17.4379C18.8499 16.977 18.916 16.4826 18.8698 15.9924C18.8529 15.8139 18.8213 15.6376 18.7756 15.4654L21.8698 14.6548L22.4998 13.8598V10.9498L21.8698 10.1548ZM17.3605 15.8361C17.393 15.9536 17.413 16.075 17.4195 16.1985C17.4195 16.664 17.2346 17.1104 16.9054 17.4395C16.5763 17.7686 16.1299 17.9535 15.6645 17.9535C15.199 17.9535 14.7526 17.7686 14.4235 17.4395C14.2204 17.2364 14.0723 16.9887 13.9886 16.7194L17.3605 15.8361ZM20.9998 13.2298L3.86975 17.7448V6.74977L20.9998 11.5798V13.2298Z" fill="#4F4F4F"/>
<path d="M3.37475 5.00977L3.06455 4.61762L3.26389 4.45994L3.50876 4.52806L3.37475 5.00977ZM21.8698 10.1548L22.0038 9.67314L22.1606 9.71676L22.2616 9.84431L21.8698 10.1548ZM2.36975 5.80477H1.86975V5.56276L2.05955 5.41262L2.36975 5.80477ZM2.36975 18.7048L2.05955 19.097L1.86975 18.9468V18.7048H2.36975ZM3.37475 19.4998L3.50146 19.9835L3.26017 20.0467L3.06455 19.892L3.37475 19.4998ZM12.5071 17.1075L12.3804 16.6238L12.8657 16.4967L12.9912 16.9824L12.5071 17.1075ZM12.819 17.8832L13.255 17.6384V17.6384L12.819 17.8832ZM15.1563 19.4999L15.2316 19.0056H15.2316L15.1563 19.4999ZM18.6765 17.4379L18.2085 17.2618L18.6765 17.4379ZM18.8698 15.9924L19.3675 15.9454L18.8698 15.9924ZM18.7756 15.4654L18.2923 15.5937L18.1636 15.1088L18.6489 14.9817L18.7756 15.4654ZM21.8698 14.6548L22.2616 14.9654L22.1579 15.0962L21.9965 15.1385L21.8698 14.6548ZM22.4998 13.8598H22.9998V14.0339L22.8916 14.1704L22.4998 13.8598ZM22.4998 10.9498L22.8916 10.6393L22.9998 10.7758V10.9498H22.4998ZM17.4195 16.1985L17.9188 16.1722L17.9195 16.1854V16.1985H17.4195ZM17.3605 15.8361L17.2338 15.3524L17.711 15.2274L17.8425 15.7028L17.3605 15.8361ZM14.4235 17.4395L14.7771 17.0859L14.7771 17.0859L14.4235 17.4395ZM13.9886 16.7194L13.5111 16.8678L13.3558 16.3683L13.8618 16.2357L13.9886 16.7194ZM3.86975 17.7448L3.99719 18.2283L3.36975 18.3937V17.7448H3.86975ZM20.9998 13.2298H21.4998V13.6151L21.1272 13.7133L20.9998 13.2298ZM3.86975 6.74977H3.36975V6.08929L4.00545 6.26853L3.86975 6.74977ZM20.9998 11.5798L21.1354 11.0986L21.4998 11.2013V11.5798H20.9998ZM3.50876 4.52806L22.0038 9.67314L21.7358 10.6366L3.24075 5.49147L3.50876 4.52806ZM2.05955 5.41262L3.06455 4.61762L3.68496 5.40191L2.67996 6.19691L2.05955 5.41262ZM1.86975 18.7048V5.80477H2.86975V18.7048H1.86975ZM3.06455 19.892L2.05955 19.097L2.67996 18.3127L3.68496 19.1077L3.06455 19.892ZM12.6339 17.5912L3.50146 19.9835L3.24805 19.0161L12.3804 16.6238L12.6339 17.5912ZM12.3831 18.128C12.2244 17.8454 12.1036 17.5444 12.0231 17.2326L12.9912 16.9824C13.0503 17.2108 13.1388 17.4314 13.255 17.6384L12.3831 18.128ZM13.5165 19.3727C13.049 19.0493 12.6614 18.6237 12.3831 18.128L13.255 17.6384C13.4589 18.0015 13.7429 18.3134 14.0854 18.5503L13.5165 19.3727ZM15.0811 19.9942C14.5191 19.9086 13.984 19.696 13.5165 19.3727L14.0854 18.5503C14.4279 18.7872 14.8199 18.9429 15.2316 19.0056L15.0811 19.9942ZM16.7596 19.8665C16.2171 20.0361 15.643 20.0797 15.081 19.9942L15.2316 19.0056C15.6433 19.0683 16.0639 19.0363 16.4614 18.9121L16.7596 19.8665ZM18.2122 19.0157C17.799 19.406 17.3022 19.697 16.7596 19.8665L16.4614 18.9121C16.8588 18.7878 17.2228 18.5747 17.5255 18.2887L18.2122 19.0157ZM19.1445 17.614C18.9443 18.146 18.6254 18.6254 18.2122 19.0157L17.5255 18.2887C17.8283 18.0027 18.0619 17.6515 18.2085 17.2618L19.1445 17.614ZM19.3675 15.9454C19.421 16.5113 19.3447 17.0819 19.1445 17.614L18.2085 17.2618C18.3552 16.872 18.4111 16.4539 18.372 16.0393L19.3675 15.9454ZM19.2589 15.3371C19.3116 15.5359 19.3481 15.7393 19.3675 15.9454L18.372 16.0393C18.3577 15.8884 18.331 15.7394 18.2923 15.5937L19.2589 15.3371ZM21.9965 15.1385L18.9023 15.9491L18.6489 14.9817L21.7431 14.1712L21.9965 15.1385ZM22.8916 14.1704L22.2616 14.9654L21.4779 14.3443L22.1079 13.5493L22.8916 14.1704ZM22.9998 10.9498V13.8598H21.9998V10.9498H22.9998ZM22.2616 9.84431L22.8916 10.6393L22.1079 11.2604L21.4779 10.4654L22.2616 9.84431ZM16.9202 16.2248C16.9156 16.1378 16.9015 16.0521 16.8786 15.9693L17.8425 15.7028C17.8845 15.855 17.9103 16.0123 17.9188 16.1722L16.9202 16.2248ZM16.5519 17.0859C16.7872 16.8506 16.9195 16.5314 16.9195 16.1985H17.9195C17.9195 16.7966 17.6819 17.3702 17.259 17.793L16.5519 17.0859ZM15.6645 17.4535C15.9973 17.4535 16.3165 17.3213 16.5519 17.0859L17.259 17.793C16.8361 18.2159 16.2625 18.4535 15.6645 18.4535V17.4535ZM14.7771 17.0859C15.0124 17.3213 15.3316 17.4535 15.6645 17.4535V18.4535C15.0664 18.4535 14.4928 18.2159 14.0699 17.793L14.7771 17.0859ZM14.466 16.571C14.5259 16.7636 14.6318 16.9407 14.7771 17.0859L14.0699 17.793C13.809 17.5321 13.6186 17.2138 13.5111 16.8678L14.466 16.571ZM17.4872 16.3198L14.1153 17.2031L13.8618 16.2357L17.2338 15.3524L17.4872 16.3198ZM3.74232 17.2613L20.8723 12.7464L21.1272 13.7133L3.99719 18.2283L3.74232 17.2613ZM4.36975 6.74977V17.7448H3.36975V6.74977H4.36975ZM20.8641 12.0611L3.73406 7.231L4.00545 6.26853L21.1354 11.0986L20.8641 12.0611ZM20.4998 13.2298V11.5798H21.4998V13.2298H20.4998Z" fill="#4F4F4F"/>
</svg>
