<svg width="24" height="24" viewBox="0 0 24 24" fill="none" xmlns="http://www.w3.org/2000/svg">
<path fill-rule="evenodd" clip-rule="evenodd" d="M4 5C4 4.44772 4.44772 4 5 4H19C19.5523 4 20 4.44772 20 5V19C20 19.5523 19.5523 20 19 20H5C4.44772 20 4 19.5523 4 19V5ZM5 2C3.34315 2 2 3.34315 2 5V19C2 20.6569 3.34315 22 5 22H19C20.6569 22 22 20.6569 22 19V5C22 3.34315 20.6569 2 19 2H5ZM11 8C11 7.44772 11.4477 7 12 7C12.5523 7 13 7.44772 13 8V16C13 16.5523 12.5523 17 12 17C11.4477 17 11 16.5523 11 16V8ZM7 13C7 12.4477 7.44772 12 8 12C8.55228 12 9 12.4477 9 13V16C9 16.5523 8.55228 17 8 17C7.44772 17 7 16.5523 7 16V13ZM16 10C15.4477 10 15 10.4477 15 11V16.2727C15 16.825 15.4477 17.2727 16 17.2727C16.5523 17.2727 17 16.825 17 16.2727V11C17 10.4477 16.5523 10 16 10Z" fill="#4F4F4F"/>
</svg>
